<svg width="57" height="12" fill="none" xmlns="http://www.w3.org/2000/svg">
  <g clip-path="url(#a)">
    <path fill-rule="evenodd" clip-rule="evenodd" d="M4.789 1.63C1.729.955-.568 3.264.118 6.338a3.39 3.39 0 0 0 2.552 2.57c3.05.694 5.349-1.62 4.672-4.704A3.385 3.385 0 0 0 4.79 1.63ZM3.735 7.858a2.596 2.596 0 0 1 0-5.184c1.438 0 2.442 1.065 2.442 2.59 0 1.524-1.004 2.594-2.442 2.594Zm9.388-6.348a3.22 3.22 0 0 0-2.508 1.02v-.965H9.383v7.398h1.272V5.089c0-1.495.857-2.39 2.294-2.39 1.274 0 1.95.725 1.95 2.095v4.169h1.271V4.699c-.002-1.995-1.14-3.19-3.047-3.19Zm8.99 0a3.243 3.243 0 0 0-2.548 1.114v-1.06h-1.232v10.008h1.277v-3.62a3.242 3.242 0 0 0 2.508 1.08 3.763 3.763 0 0 0-.004-7.522Zm-.065 6.348a2.6 2.6 0 0 1 0-5.189 2.444 2.444 0 0 1 2.455 2.595 2.42 2.42 0 0 1-2.455 2.594ZM40.127 1.57v7.398h1.271V1.57h-1.272Zm7.416-.055a3.222 3.222 0 0 0-2.507 1.02V1.57h-1.233v7.398h1.272V5.094c0-1.5.857-2.395 2.293-2.395 1.275 0 1.95.725 1.95 2.095v4.174h1.272V4.704c-.001-2-1.138-3.19-3.047-3.19Zm8.483 5.843-.16.145c-.259.217-.589.33-.927.32-.694 0-1.047-.375-1.047-1.12V2.664h2.125v-1.13h-2.125V0h-1.266v6.758c0 1.405.804 2.21 2.207 2.21a2.388 2.388 0 0 0 1.583-.54l.091-.08-.481-.99ZM32.776.205a5.093 5.093 0 1 0 5.05 5.084 4.909 4.909 0 0 0-5.05-5.084Zm2.3 7.398-4.642.005a.653.653 0 0 1-.65-.655V3.67a.677.677 0 0 1 .674-.68h4.618a.677.677 0 0 1 .674.68v3.26a.672.672 0 0 1-.673.674h-.001Z" fill="#171717" />
  </g>
  <defs>
    <clipPath id="a">
      <path fill="#fff" d="M0 0h56.5v11.577H0z" />
    </clipPath>
  </defs>
</svg>