<svg width="25" height="23" fill="none" xmlns="http://www.w3.org/2000/svg">
  <path fill-rule="evenodd" clip-rule="evenodd" d="m1.682 12.3687 10.8901-9.941 10.6005 9.941.2574-.2681L12.7061 2.0363a.1822.1822 0 0 0-.252 0L1.43 12.106l.252.2627Zm2.7185-.0804v9.0616a.1824.1824 0 0 0 .1823.1824h5.6568a.1827.1827 0 0 0 .1287-.0537.1875.1875 0 0 0 .0537-.1287v-5.2815h4.2037v5.2815a.1824.1824 0 0 0 .1823.1824h5.7534a.1834.1834 0 0 0 .134-.0537.1878.1878 0 0 0 .0536-.1287v-9.0616h-.3699v8.8793h-5.3888v-5.2868a.1878.1878 0 0 0-.0536-.1287.1823.1823 0 0 0-.1287-.0536h-4.5684a.182.182 0 0 0-.1286.0536.1934.1934 0 0 0-.0537.1287v5.2815H4.7651v-8.874H4.4005Z" fill="#282828" stroke="#282828" stroke-width="2" />
</svg>